Coordinates
version=1
nRows=7
nColumns=40
inDegrees=yes

Units are S.I. units (second, meters, Newtons, ...)
Angles are in degrees.

endheader
time	pelvis_tilt	pelvis_list	pelvis_rotation	pelvis_tx	pelvis_ty	pelvis_tz	hip_flexion_r	hip_adduction_r	hip_rotation_r	knee_angle_r	knee_angle_r_beta	ankle_angle_r	subtalar_angle_r	mtp_angle_r	hip_flexion_l	hip_adduction_l	hip_rotation_l	knee_angle_l	knee_angle_l_beta	ankle_angle_l	subtalar_angle_l	mtp_angle_l	lumbar_extension	lumbar_bending	lumbar_rotation	arm_flex_r	arm_add_r	arm_rot_r	elbow_flex_r	pro_sup_r	wrist_flex_r	wrist_dev_r	arm_flex_l	arm_add_l	arm_rot_l	elbow_flex_l	pro_sup_l	wrist_flex_l	wrist_dev_l
     52.18250000	     -5.08513259	     -3.25530009	      8.01562358	      1.04018158	      0.93114376	      0.52028070	     10.36478646	      0.26712878	    -17.36762772	     15.77659704	     15.77659704	     11.49723168	     -3.13619430	     -4.22676948	     32.25111061	     -8.84076319	      3.71806571	     35.04089407	     35.04089407	     11.19066029	    -16.26390817	     10.57034216	    -10.51699309	      4.20686407	      2.41324508	     23.33013413	    -19.97174452	      2.02964198	     62.08544391	     45.07923735	      0.00000000	      0.00000000	      3.36401200	    -10.82710531	     -2.90897826	     33.84335149	     46.71909758	      0.00000000	      0.00000000
     52.19585714	     -5.20701207	     -3.07526137	      8.51953987	      1.03826182	      0.93099026	      0.51955032	     10.16150545	      0.04405160	    -17.56861089	     15.72929321	     15.72929321	     11.71475330	     -3.45433482	     -4.27940718	     32.40187746	     -8.23291896	      3.81363375	     31.81609501	     31.81609501	     11.20632134	    -15.01993879	     10.55996481	    -10.56531011	      4.07131395	      2.35110773	     24.47430219	    -19.91667427	      1.99465658	     63.31971973	     45.04622587	      0.00000000	      0.00000000	      3.56556543	    -10.89201062	     -2.96644949	     33.90975384	     46.72207704	      0.00000000	      0.00000000
     52.20921429	     -5.35125387	     -2.95753205	      8.98372983	      1.03637214	      0.93070012	      0.51875455	     10.00079622	     -0.12251516	    -17.77231081	     15.70755886	     15.70755886	     11.93110741	     -3.75730124	     -4.33547411	     32.56873825	     -7.71132081	      3.93127351	     28.77178614	     28.77178614	     11.19358068	    -13.52639408	     10.50041684	    -10.57313995	      3.98716460	      2.30329196	     25.56953972	    -19.85565791	      1.99062670	     64.60531050	     45.01013250	      0.00000000	      0.00000000	      3.76117572	    -10.92713273	     -3.02696736	     34.01427077	     46.72603273	      0.00000000	      0.00000000
     52.22257143	     -5.41878021	     -2.89215991	      9.41208828	      1.03465279	      0.93036212	      0.51791847	      9.73224299	     -0.19961345	    -17.92122870	     15.64096517	     15.64096517	     12.16638991	     -4.08606231	     -4.36610364	     32.63246794	     -7.34513587	      3.86069411	     25.89984726	     25.89984726	     10.53593890	    -11.78539342	      8.62952893	    -10.73272580	      3.97754996	      2.48079826	     25.86916163	    -20.24863220	      2.31262719	     68.12652190	     44.90017870	      0.00000000	      0.00000000	      3.96082879	    -10.91870899	     -3.51185859	     34.56100978	     46.74665871	      0.00000000	      0.00000000
     52.23592857	     -5.54722285	     -2.79401149	      9.76941729	      1.03297033	      0.93003269	      0.51696325	      9.56660416	     -0.34747431	    -18.04752351	     15.65819894	     15.65819894	     12.40749379	     -4.34809376	     -4.43590388	     32.74585028	     -6.90545872	      3.91677491	     23.38985854	     23.38985854	     10.44282701	    -10.23928425	      8.79518304	    -10.70787201	      3.89615470	      2.55940573	     26.94398372	    -20.08767272	      2.24917022	     68.88284783	     44.88530802	      0.00000000	      0.00000000	      4.22194793	    -10.91304498	     -3.51394474	     34.59352949	     46.74367790	      0.00000000	      0.00000000
     52.24928571	     -5.63594655	     -2.69208267	     10.08604545	      1.03148979	      0.92976960	      0.51596776	      9.31601235	     -0.47561140	    -18.14242579	     15.61743722	     15.61743722	     12.64569218	     -4.59160982	     -4.47381715	     32.81137666	     -6.54101478	      3.75760674	     21.24940626	     21.24940626	     10.29653440	     -8.62846506	      8.87276622	    -10.71333224	      3.79650959	      2.53618218	     27.94370724	    -19.76849190	      2.27826904	     69.90550456	     44.85828607	      0.00000000	      0.00000000	      4.43308808	    -10.97492214	     -3.54496421	     34.64013883	     46.74294437	      0.00000000	      0.00000000
     52.26264286	     -5.66093812	     -2.59782848	     10.35694484	      1.03024866	      0.92953083	      0.51489628	      8.93571292	     -0.56144061	    -18.19058420	     15.48365146	     15.48365146	     12.87631254	     -4.81150631	     -4.46368926	     32.84202049	     -6.27219334	      3.29515390	     19.57834118	     19.57834118	     10.11856492	     -6.97612340	      8.66867318	    -10.78443392	      3.71201995	      2.46842145	     28.79252295	    -19.38758214	      2.44416833	     71.38270771	     44.81462301	      0.00000000	      0.00000000	      4.60203651	    -11.07705407	     -3.65704704	     34.78886438	     46.74480462	      0.00000000	      0.00000000
